<?xml version="1.0" encoding="UTF-8" standalone="no"?>
<!-- Generator: Adobe Illustrator 16.0.0, SVG Export Plug-In . SVG Version: 6.00 Build 0)  -->

<svg
   xmlns:dc="http://purl.org/dc/elements/1.1/"
   xmlns:cc="http://creativecommons.org/ns#"
   xmlns:rdf="http://www.w3.org/1999/02/22-rdf-syntax-ns#"
   xmlns:svg="http://www.w3.org/2000/svg"
   xmlns="http://www.w3.org/2000/svg"
   xmlns:sodipodi="http://sodipodi.sourceforge.net/DTD/sodipodi-0.dtd"
   xmlns:inkscape="http://www.inkscape.org/namespaces/inkscape"
   version="1.1"
   id="svg4706"
   sodipodi:docname="drawing3_final_blancaF.svg"
   inkscape:version="0.91 r13725"
   x="0px"
   y="0px"
   width="150.33452"
   height="155.14098"
   viewBox="0 0 150.33451 155.14098"
   enable-background="new 0 0 595.275 841.891"
   xml:space="preserve"><metadata
   id="metadata4142"><rdf:RDF><cc:Work
       rdf:about=""><dc:format>image/svg+xml</dc:format><dc:type
         rdf:resource="http://purl.org/dc/dcmitype/StillImage" /><dc:title></dc:title></cc:Work></rdf:RDF></metadata><defs
   id="defs4140" />
<sodipodi:namedview
   id="base"
   inkscape:window-maximized="1"
   inkscape:window-y="-8"
   inkscape:window-x="-8"
   inkscape:window-height="801"
   inkscape:window-width="1536"
   inkscape:current-layer="layer1"
   inkscape:document-units="px"
   inkscape:pageshadow="2"
   inkscape:pageopacity="0"
   inkscape:cy="49.674025"
   inkscape:cx="58.63385"
   inkscape:zoom="1.942667"
   borderopacity="1"
   showgrid="false"
   bordercolor="#000000"
   pagecolor="#ffffff"
   fit-margin-top="0"
   fit-margin-left="0"
   fit-margin-right="0"
   fit-margin-bottom="0">
	</sodipodi:namedview>
<g
   id="layer1"
   inkscape:groupmode="layer"
   inkscape:label="Capa 1"
   transform="translate(-156.84396,-261.45828)">
	<path
   id="path5270"
   enable-background="new    "
   d="m 232.01069,261.45828 c -41.51361,0 -75.16673,33.02662 -75.16673,73.766 0.031,18.34403 7.02499,36.01836 19.61755,49.57497 l -4.68937,31.8 31.59244,-13.20727 c 9.08408,3.68619 18.81678,5.58829 28.64664,5.59883 11.3663,-0.0322 22.57724,-2.5934 32.78828,-7.49093 l -4.15445,-1.75932 c -7.94803,3.26625 -16.46301,4.9518 -25.06288,4.96076 -36.31919,0 -65.76127,-29.26508 -65.7618,-65.36617 -5.4e-4,-36.10107 29.44207,-65.36668 65.7618,-65.36721 36.3192,0 65.76235,29.26561 65.76288,65.36669 l 0,5.2e-4 c -0.0272,16.2554 -6.14627,31.9175 -17.16343,43.9303 l 0.63636,4.37169 c 14.28595,-13.84008 22.33754,-32.71259 22.3605,-52.41286 -10e-4,-40.73938 -33.65473,-73.766 -75.16779,-73.766 z m 8.55608,46.21388 -6.99563,56.79191 11.76136,0 6.99562,-56.79191 -11.76135,0 z m 19.36878,0 -6.99563,56.79191 6.53385,0 c 1.28072,0 2.20375,-0.23973 2.76804,-0.72027 0.56375,-0.50582 1.025,-1.28985 1.38374,-2.35208 l 0.11532,-0.37989 c 1.07625,1.21397 2.3575,2.20033 3.84375,2.95854 1.48572,0.73397 3.21594,1.10016 5.18907,1.10016 2.5625,0 5.00969,-0.68233 7.34157,-2.04858 2.3575,-1.39102 4.43312,-3.26257 6.22688,-5.61465 1.79322,-2.35208 3.21593,-5.07036 4.26656,-8.15589 1.07625,-3.11081 1.61384,-6.38602 1.61384,-9.82563 0,-2.60499 -0.28134,-4.84273 -0.84509,-6.71481 -0.53812,-1.89684 -1.30688,-3.45225 -2.30625,-4.66623 -0.97375,-1.21398 -2.13969,-2.09811 -3.49782,-2.65505 -1.35812,-0.58169 -2.85772,-0.87254 -4.49772,-0.87254 -2.33188,0 -4.54898,0.60699 -6.64969,1.82149 -2.07617,1.18869 -3.99751,2.84421 -5.76563,4.9692 l 2.95916,-23.63463 -11.68395,0 z m -72.19155,1.51852 -6.91929,55.27392 20.14126,0 c 2.94688,0 5.75335,-0.35407 8.41836,-1.06223 2.69062,-0.70816 5.1629,-1.7198 7.41791,-3.03494 2.28063,-1.31515 4.33063,-2.89585 6.15053,-4.7421 1.84501,-1.87155 3.40813,-3.9586 4.68938,-6.2601 1.28126,-2.32679 2.26782,-4.8301 2.95969,-7.51097 0.69188,-2.70615 1.03782,-5.56511 1.03782,-8.57424 0,-3.4396 -0.55041,-6.62629 -1.65228,-9.56007 -1.10188,-2.93378 -2.67835,-5.47607 -4.72782,-7.62583 -2.05,-2.14922 -4.54897,-3.83109 -7.49585,-5.04453 -2.92125,-1.2398 -6.21354,-1.85891 -9.87792,-1.85891 l -20.14179,0 z m 11.37697,9.52161 7.53376,0 c 1.9475,0 3.67772,0.35408 5.1896,1.06223 1.51188,0.70868 2.78032,1.70716 3.80532,2.99701 1.05062,1.28985 1.83219,2.85843 2.34469,4.70469 0.53812,1.82097 0.80665,3.85691 0.80665,6.10783 0,3.28785 -0.38438,6.24692 -1.15313,8.87773 -0.76875,2.63081 -1.87063,4.86856 -3.30562,6.71482 -1.43501,1.84625 -3.17751,3.27521 -5.22751,4.28686 -2.05,0.98635 -4.35572,1.47953 -6.91822,1.47953 l -7.53429,0 4.45875,-36.2307 z m 77.18897,14.72001 c 1.23,0 2.21603,0.56852 2.95916,1.70662 0.74366,1.13811 1.11575,2.95907 1.11575,5.46291 0,1.97271 -0.24397,3.90748 -0.73085,5.80432 -0.46125,1.89737 -1.11468,3.59136 -1.96031,5.08353 -0.84563,1.46689 -1.85728,2.65559 -3.03656,3.56607 -1.15313,0.91101 -2.42157,1.36572 -3.80532,1.36572 -0.82,0 -1.69179,-0.12645 -2.61428,-0.37937 -0.92251,-0.25291 -1.75479,-0.68233 -2.49845,-1.28932 l 1.11576,-9.14382 c 0.48634,-1.66922 1.088,-3.23675 1.80603,-4.70311 0.74313,-1.49218 1.5375,-2.78256 2.38313,-3.87061 0.84562,-1.11281 1.71741,-1.98536 2.61375,-2.61711 0.92304,-0.65705 1.80657,-0.98583 2.65219,-0.98583 z"
   inkscape:connector-curvature="0"
   style="opacity:0.98000004;fill:#ffffff;fill-opacity:1"
   inkscape:export-xdpi="300"
   inkscape:export-ydpi="300" />
</g>
</svg>